<?xml version="1.0" standalone="no"?>
<!DOCTYPE svg PUBLIC "-//W3C//DTD SVG 20010904//EN"
 "http://www.w3.org/TR/2001/REC-SVG-20010904/DTD/svg10.dtd">
<svg version="1.0" xmlns="http://www.w3.org/2000/svg"
 width="420.000000pt" height="420.000000pt" viewBox="0 0 420.000000 420.000000"
 preserveAspectRatio="xMidYMid meet">
<metadata>
Created by potrace 1.11, written by Peter Selinger 2001-2013
</metadata>
<g transform="translate(0.000000,420.000000) scale(0.100000,-0.100000)"
fill="#000000" stroke="none">
<path d="M736 3878 c-21 -34 -41 -83 -72 -178 -24 -77 -27 -101 -29 -257 -2
-164 -1 -174 19 -197 29 -33 74 -40 78 -13 2 13 14 24 32 28 35 10 46 4 46
-22 0 -10 5 -19 10 -19 6 0 10 -13 10 -29 0 -17 4 -32 9 -35 13 -8 51 -84 51
-101 0 -8 11 -22 25 -31 14 -9 25 -25 25 -35 0 -11 7 -22 15 -25 8 -3 17 -14
20 -24 3 -11 11 -17 18 -14 20 7 76 -53 70 -76 -7 -25 2 -25 34 0 14 11 32 20
39 20 7 0 23 14 36 30 14 20 30 30 48 30 51 0 65 39 29 84 -21 27 -19 50 3 28
17 -17 28 -15 28 4 0 9 -9 18 -21 21 -16 5 -19 11 -14 30 5 21 4 22 -15 11
-11 -7 -20 -16 -20 -20 0 -5 -7 -8 -15 -8 -20 0 -19 17 3 30 15 9 15 12 -10
33 -16 12 -28 28 -28 33 0 6 -9 19 -20 29 -26 24 -25 43 4 56 12 6 32 31 43
55 19 42 20 44 3 44 -10 0 -25 6 -32 13 -7 7 -21 16 -31 20 -16 6 -18 14 -12
47 7 41 7 41 -22 34 -15 -4 -36 -13 -45 -22 -10 -8 -24 -12 -33 -8 -18 7 -11
26 10 26 23 0 27 18 14 55 -15 42 -35 50 -86 36 -25 -7 -39 -7 -41 -1 -2 6
-16 10 -31 10 -44 0 -66 64 -36 104 8 11 15 34 15 52 0 18 6 35 13 37 13 6
-47 70 -74 79 -12 4 -12 7 -1 21 11 13 10 17 -7 26 -29 16 -39 14 -55 -11z
m34 -316 c0 -13 -12 -22 -22 -16 -10 6 -1 24 13 24 5 0 9 -4 9 -8z m-2 -72 c9
-16 9 -26 -2 -52 -8 -18 -17 -41 -20 -50 -3 -10 -10 -18 -16 -18 -14 0 -50 37
-50 53 0 12 60 86 70 87 3 0 11 -9 18 -20z m10 -170 c4 -24 -12 -40 -40 -40
-23 0 -23 28 -1 52 21 23 37 19 41 -12z"/>
<path d="M900 3590 c0 -5 9 -10 20 -10 11 0 20 5 20 10 0 6 -9 10 -20 10 -11
0 -20 -4 -20 -10z"/>
<path d="M2650 3580 c0 -11 7 -20 15 -20 8 0 15 9 15 20 0 11 -7 20 -15 20 -8
0 -15 -9 -15 -20z"/>
<path d="M1200 3536 c0 -18 9 -45 20 -59 11 -14 20 -31 20 -37 0 -7 11 -34 24
-60 14 -27 22 -58 19 -69 -3 -13 4 -29 21 -46 32 -31 34 -77 6 -105 -21 -21
-28 -70 -9 -70 5 0 15 -13 20 -30 6 -16 16 -30 21 -30 14 0 151 144 185 193
14 20 32 37 39 37 16 0 37 71 24 84 -15 15 -40 -2 -56 -39 -10 -26 -20 -35
-38 -35 -20 0 -78 42 -109 79 -5 5 -25 27 -45 48 -20 21 -44 55 -54 76 -43 94
-88 126 -88 63z"/>
<path d="M4120 3190 c0 -5 7 -10 15 -10 8 0 15 5 15 10 0 6 -7 10 -15 10 -8 0
-15 -4 -15 -10z"/>
<path d="M700 2966 c0 -24 23 -56 39 -56 5 0 25 -13 46 -30 41 -32 44 -34 62
-22 16 10 28 62 15 62 -6 0 -37 16 -69 35 -70 42 -93 45 -93 11z"/>
<path d="M898 2939 c-27 -15 -21 -31 9 -27 17 2 29 10 31 21 4 19 -14 22 -40
6z"/>
<path d="M3019 2800 c-19 -10 -40 -30 -47 -44 -6 -14 -16 -26 -22 -26 -5 0
-10 -19 -10 -42 1 -62 46 -134 111 -181 72 -50 117 -57 152 -24 30 27 34 42
13 50 -11 5 -13 18 -9 60 4 38 1 62 -11 85 -24 46 -20 56 15 32 16 -12 33 -19
36 -16 12 12 -32 90 -62 107 -39 25 -119 24 -166 -1z m129 -88 c3 -9 -2 -13
-14 -10 -9 1 -19 9 -22 16 -3 9 2 13 14 10 9 -1 19 -9 22 -16z m-108 -17 c0
-8 -6 -15 -14 -15 -17 0 -28 14 -19 24 12 12 33 6 33 -9z"/>
<path d="M742 2796 c-19 -7 -38 -19 -43 -27 -13 -22 -11 -55 6 -69 19 -16 19
-25 0 -44 -11 -11 -16 -39 -18 -97 l-3 -82 38 -23 c21 -13 42 -24 48 -24 10 0
15 26 11 66 0 11 8 29 19 39 11 10 20 23 20 28 0 6 11 25 25 43 29 38 32 69 8
83 -17 9 -17 10 0 28 24 28 21 46 -13 71 -32 24 -49 25 -98 8z"/>
<path d="M2010 2624 c-25 -8 -54 -19 -65 -24 -11 -5 -25 -10 -31 -12 -7 -2
-43 -33 -81 -69 -81 -76 -81 -80 2 -164 46 -47 65 -58 158 -99 41 -19 141 -19
185 0 19 8 42 14 52 14 25 0 110 39 110 51 0 17 60 69 80 69 30 0 36 22 11 39
-12 9 -44 33 -71 54 -27 20 -52 37 -56 37 -16 0 -83 37 -119 66 -69 56 -101
63 -175 38z m161 -114 c46 -48 59 -98 35 -135 -25 -38 -39 -30 -59 31 -27 86
-42 104 -83 97 -27 -5 -34 -2 -34 11 0 19 32 34 74 35 21 1 39 -10 67 -39z"/>
<path d="M3250 2588 c0 -32 3 -39 10 -28 13 20 13 70 0 70 -5 0 -10 -19 -10
-42z"/>
<path d="M3160 2150 c-88 -7 -117 -17 -185 -62 -81 -53 -95 -79 -87 -168 4
-56 41 -163 64 -187 21 -22 25 -32 16 -46 -7 -13 -7 -22 1 -30 18 -18 13 -35
-11 -39 -13 -2 -23 -10 -23 -18 0 -19 35 -26 46 -8 7 10 9 8 9 -7 -1 -11 -9
-30 -19 -42 -15 -18 -26 -22 -50 -17 -37 8 -43 -15 -12 -37 28 -20 17 -59 -25
-87 -18 -12 -40 -22 -48 -22 -7 0 -26 -10 -41 -21 -26 -21 -28 -21 -61 -5 -19
9 -49 16 -67 16 -18 0 -48 5 -67 10 -19 6 -57 13 -85 16 -27 3 -54 9 -60 12
-16 11 -98 11 -117 1 -27 -14 -22 -48 7 -59 17 -6 27 -20 31 -40 6 -26 11 -30
40 -30 30 0 34 -3 34 -25 0 -20 5 -25 25 -25 14 0 25 5 25 10 0 14 27 13 32
-1 4 -13 55 -20 140 -19 40 0 70 -7 105 -24 53 -27 102 -29 130 -5 28 24 115
23 147 -2 32 -25 82 -18 108 14 20 26 33 16 33 -26 0 -27 4 -32 28 -35 19 -2
29 2 34 15 3 10 14 27 23 38 10 11 30 38 45 60 14 22 43 49 63 61 57 32 97 96
95 150 -1 31 3 47 13 51 17 6 18 36 3 65 -8 14 -8 23 0 31 6 6 11 20 11 32 0
12 6 27 12 33 10 10 8 14 -10 18 -28 8 -31 31 -16 143 l7 53 -34 -7 -34 -7 21
23 c44 52 55 109 29 159 -18 35 -43 50 -83 50 -16 0 -41 9 -56 21 -32 25 -72
29 -186 19z"/>
<path d="M4151 1946 c-11 -13 -11 -20 -3 -28 15 -15 24 -5 20 23 -3 21 -4 21
-17 5z"/>
<path d="M2770 1620 c0 -5 5 -10 10 -10 6 0 10 5 10 10 0 6 -4 10 -10 10 -5 0
-10 -4 -10 -10z"/>
<path d="M2850 1606 c0 -9 7 -16 16 -16 17 0 14 22 -4 28 -7 2 -12 -3 -12 -12z"/>
<path d="M774 866 c-3 -9 -12 -16 -20 -16 -8 0 -14 -4 -14 -9 0 -13 28 -22 32
-10 2 6 18 14 36 17 43 9 46 26 4 30 -22 2 -34 -2 -38 -12z"/>
</g>
</svg>
